<?xml version="1.0" encoding="UTF-8" standalone="no"?>
<svg
   xmlns:dc="http://purl.org/dc/elements/1.1/"
   xmlns:cc="http://creativecommons.org/ns#"
   xmlns:rdf="http://www.w3.org/1999/02/22-rdf-syntax-ns#"
   xmlns:svg="http://www.w3.org/2000/svg"
   xmlns="http://www.w3.org/2000/svg"
   xmlns:sodipodi="http://sodipodi.sourceforge.net/DTD/sodipodi-0.dtd"
   xmlns:inkscape="http://www.inkscape.org/namespaces/inkscape"
   height="511pt"
   viewBox="0 -3 511.99942 511"
   width="511pt"
   version="1.1"
   id="svg4"
   sodipodi:docname="highlighter-base.svg"
   inkscape:version="0.92.4 (5da689c313, 2019-01-14)">
  <metadata
     id="metadata10">
    <rdf:RDF>
      <cc:Work
         rdf:about="">
        <dc:format>image/svg+xml</dc:format>
        <dc:type
           rdf:resource="http://purl.org/dc/dcmitype/StillImage" />
        <dc:title></dc:title>
      </cc:Work>
    </rdf:RDF>
  </metadata>
  <defs
     id="defs8" />
  <sodipodi:namedview
     pagecolor="#ffffff"
     bordercolor="#666666"
     borderopacity="1"
     objecttolerance="10"
     gridtolerance="10"
     guidetolerance="10"
     inkscape:pageopacity="0"
     inkscape:pageshadow="2"
     inkscape:window-width="1578"
     inkscape:window-height="780"
     id="namedview6"
     showgrid="false"
     inkscape:zoom="0.34637965"
     inkscape:cx="306.0226"
     inkscape:cy="340.66667"
     inkscape:window-x="2056"
     inkscape:window-y="147"
     inkscape:window-maximized="0"
     inkscape:current-layer="svg4" />
  <path
     d="m496.246094 73.867188-57.613282-57.613282c-10.160156-10.160156-23.664062-15.753906-38.035156-15.753906-14.367187 0-27.871094 5.59375-38.03125 15.75l-258.382812 258.386719c-15.382813 15.378906-23.851563 35.832031-23.851563 57.585937 0 9.191406-3.726562 18.191406-10.226562 24.691406l-22.222657 22.21875c-5.78125 5.785157-9.097656 13.789063-9.097656 21.96875 0 5.34375 1.425782 10.613282 4.023438 15.242188l-38.414063 38.414062c-3.179687 3.179688-4.765625 7.613282-4.3203122 12.085938.4414062 4.472656 2.8671872 8.511719 6.6054692 11.003906l38.558593 25.707032c2.539063 1.691406 5.4375 2.519531 8.316407 2.519531 3.871093 0 7.710937-1.496094 10.609374-4.394531l31.992188-31.992188c4.628906 2.601562 9.898438 4.027344 15.246094 4.027344 8.175781 0 16.183594-3.316406 21.964844-9.101563l22.21875-22.21875c6.5-6.5 15.5-10.230469 24.691406-10.230469 21.753906 0 42.207031-8.46875 57.585937-23.847656l258.382813-258.382812c10.160156-10.160156 15.753906-23.667969 15.753906-38.035156 0-14.367188-5.59375-27.871094-15.753906-38.03125zm-444.597656 397.90625-13.105469-8.738282 24.65625-24.65625 10.921875 10.921875zm82.722656-50.59375-22.21875 22.21875c0 .003906 0 .003906-.003906.003906-.394532.398437-1.101563.394531-1.503907 0l-36.839843-36.84375s-.003907 0-.003907-.003906l-4.703125-4.703126c-.46875-.46875-.367187-1.140624 0-1.503906l22.222656-22.21875c12.261719-12.261718 19.011719-28.5625 19.011719-45.90625 0-6.832031 1.324219-13.460937 3.847657-19.59375l85.691406 85.6875c-6.132813 2.523438-12.761719 3.851563-19.59375 3.851563-17.339844 0-33.644532 6.75-45.90625 19.011719zm89.496094-41.292969-91.253907-91.253907 219.785157-219.785156 91.253906 91.253906zm251.167968-251.167969-10.167968 10.167969-91.253907-91.253907 10.167969-10.167968c9.289062-9.289063 24.335938-9.300782 33.636719 0l57.617187 57.617187c9.289063 9.289063 9.300782 24.335938 0 33.636719zm0 0"
     id="path2" />
  <path
     style="fill:#fea6ff;stroke-width:2.88700557"
     d="m 238.61102,449.08421 c -32.15403,-32.49097 -58.46187,-59.9832 -58.46187,-61.09383 0,-1.11066 64.95811,-66.96774 144.35135,-146.34907 L 468.85185,97.311613 528.75003,157.20979 588.64821,217.10797 442.86054,362.63333 297.07288,508.1587 Z"
     id="path4526"
     inkscape:connector-curvature="0"
     transform="matrix(0.75146688,0,0,0.75146688,0,-3.49971)" />
  <path
     style="fill:#fea6ff;stroke-width:2.88700557"
     d="M 558.47697,126.29234 C 501.63192,69.396509 499.65768,67.038418 504.4423,61.75148 c 9.19931,-10.165123 23.34331,-15.941858 34.09442,-13.924939 7.98272,1.497567 19.06688,11.020886 55.31476,47.525467 43.88258,44.193362 45.33157,46.035082 45.33157,57.618202 0,9.26711 -2.02068,14.26703 -8.96009,22.17058 -4.92805,5.61273 -9.81175,10.20497 -10.85268,10.20497 -1.04092,0 -28.44292,-26.57404 -60.89331,-59.05342 z"
     id="path4528"
     inkscape:connector-curvature="0"
     transform="matrix(0.75146688,0,0,0.75146688,0,-3.49971)" />
  <path
     style="fill:#fea6ff;stroke-width:2.88700557"
     d="M 120.39254,565.70876 93.950521,539.00395 113.69213,518.08169 c 23.25558,-24.6464 30.98337,-39.20411 33.33713,-62.8009 3.53656,-35.45442 -1.4669,-37.41086 59.12648,23.11956 29.98074,29.94959 53.97365,55.32236 53.31757,56.38392 -0.65607,1.06156 -10.52787,2.7977 -21.93731,3.8581 -28.41514,2.64091 -42.80038,9.81018 -67.24614,33.51392 -11.49028,11.1415 -21.4683,20.25727 -22.17337,20.25727 -0.70507,0 -13.18085,-12.01716 -27.72395,-26.7048 z"
     id="path4530"
     inkscape:connector-curvature="0"
     transform="matrix(0.75146688,0,0,0.75146688,0,-3.49971)" />
  <path
     style="fill:#fea6ff;stroke-width:2.88700557"
     d="m 59.450352,625.00013 -6.662076,-4.64164 15.182386,-15.37335 15.182385,-15.37335 6.697524,6.29199 6.697521,6.292 -13.6658,13.87443 c -7.516191,7.63093 -14.364215,13.80628 -15.217832,13.72299 -0.853617,-0.0833 -4.549965,-2.24016 -8.214108,-4.79307 z"
     id="path4532"
     inkscape:connector-curvature="0"
     transform="matrix(0.75146688,0,0,0.75146688,0,-3.49971)" />
    <rect
        style="fill:#000000;stroke-width:0.75146687"
        id="rect852"
        width="108.47446"
        height="28.20336"
        x="41.220295"
        y="70.262924" />
    <rect
        style="fill:#000000;stroke-width:0.75146687"
        id="rect854"
        width="23.86438"
        height="132.33884"
        x="86.779564"
        y="18.195187" />
</svg>
